# xmcd CD database file
#
# Track frame offsets:
#	183
#	26018
#	45043
#
# Disc length: 862 seconds
#
# Revision: 2
# Processed by: cddbd v1.4b41PL1 Copyright (c) Steve Scherf et al.
# Submitted via: Feurio! 1.52 - http://www.feurio.com
#
DISCID=15035c03
DTITLE=Bo Andersen and Bernie Paul - Reach out for the stars
DYEAR=1900
DGENRE=
TTITLE0=Reach out for the stars
TTITLE1=Reach out for the stars
TTITLE2=Lost in Wonder
EXTD=
EXTT0=Magic Version
EXTT1=7" version
EXTT2=
PLAYORDER=
